# xmcd
#
# Track frame offsets: 
#        150
#        16275
#        35344
#        69677
#        86740
#        119660
#        156082
#        187529
#        222428
#        235518
#        265290
#        289355
#        323939
#
# Disc length: 4736 seconds
#
# Revision: 0
# Processed by: cddbd v1.5.2PL0 Copyright (c) Steve Scherf et al.
# Submitted via: ExactAudioCopy v1.0b3
#
DISCID=b8127e0d
DTITLE=Various Artist - Techno Sounds Vol. 2 - CD 2
DYEAR=1900
DGENRE=
TTITLE0=DJ Shah - Commandments (Die 10 Gebote) (Radio Mix (English Ver
TTITLE0=sion))
TTITLE1=Nostrum - Blue Glow (US Mix)
TTITLE2=Gravity 2000 - Welcome To The New Millennium (Trance Mix)
TTITLE3=Harem Doctors - Heartbeat
TTITLE4=Mikado - Feel The Bass (Club Mix)
TTITLE5=Silvio Ecomo - Standing (Original Mix)
TTITLE6=Lord Razer - My Definition Of Trance (Lightforce Rmx)
TTITLE7=Recall - Protect Your Ears
TTITLE8=Phil Green - Das Erwachen
TTITLE9=Paratopic - Sektion 1
TTITLE10=Mike Humphries and Glenn Wilson - Aural Exciter
TTITLE11=Hennes and Cold - First Step
TTITLE12=Twinax - Braindead (Original Mix)
EXTD=
EXTT0=
EXTT1=
EXTT2=
EXTT3=
EXTT4=
EXTT5=
EXTT6=
EXTT7=
EXTT8=
EXTT9=
EXTT10=
EXTT11=
EXTT12=
PLAYORDER=
